<?xml version="1.0" encoding="utf-8"?>
<!-- Svg Vector Icons : http://www.onlinewebfonts.com/icon -->
<!DOCTYPE svg PUBLIC "-//W3C//DTD SVG 1.1//EN" "http://www.w3.org/Graphics/SVG/1.1/DTD/svg11.dtd">
<svg version="1.1" xmlns="http://www.w3.org/2000/svg" xmlns:xlink="http://www.w3.org/1999/xlink" x="0px" y="0px" viewBox="0 0 1000 1000" enable-background="new 0 0 1000 1000" xml:space="preserve">
<metadata> Svg Vector Icons : http://www.onlinewebfonts.com/icon </metadata>
<g><g transform="translate(0.000000,512.000000) scale(0.100000,-0.100000)"><path d="M4562.9,4999.7c-1478.8-132.2-2825.4-940.5-3664.4-2201C743.3,2567,494.3,2070.9,392.7,1795C187.8,1235.7,78.6,549.9,103.5-49.6c49.8-1270,542.1-2396.3,1436.7-3292.8c768.1-766.2,1674.2-1224,2752.6-1388.8c392.7-61.3,1021-61.3,1411.7,0c540.2,82.4,959.7,212.6,1450.1,452.1c971.2,471.2,1766.1,1268.1,2241.2,2241.2c170.5,348.6,256.7,580.4,344.8,919.5C9872.8-603.2,9928.3,0.2,9886.2,490.5C9778.9,1720.3,9275.1,2789.2,8407.4,3632c-821.8,796.9-1856.2,1270-3005.5,1369.6C5149,5022.7,4821.5,5022.7,4562.9,4999.7z M5422.9,4388.7c2032.4-205,3649.1-1827.4,3846.4-3857.9c174.3-1775.7-775.8-3471-2382.9-4264c-1792.9-883-3969-400.4-5225.6,1158.9c-214.5,266.3-358.2,490.4-513.4,804.5C507.7-469.1,574.7,1092,1321.8,2331.4c342.9,565.1,898.4,1120.6,1463.5,1463.5c509.5,306.5,1172.3,530.6,1756.5,591.9C4773.6,4409.7,5193.1,4411.6,5422.9,4388.7z"/><path d="M4844.4,3126.3c-46-30.6-714.5-687.7-1486.5-1459.6C1835.1,140,1900.3,212.8,1952,53.8c32.6-97.7,2867.6-2951.8,2963.3-2982.5c120.7-40.2,264.3,19.2,323.7,134.1c34.5,67.1,38.3,197.3,5.7,254.8c-11.5,23-538.2,563.2-1168.5,1199.1c-630.2,636-1145.5,1164.6-1145.5,1174.2c0,7.7,1120.6,17.2,2488.3,19.2l2490.2,5.7l59.4,57.5c124.5,118.8,120.7,295-9.6,409.9l-69,59.4H5411.5c-1486.5,0-2480.6,7.7-2480.6,17.2c0,9.6,515.3,538.3,1145.5,1174.2c630.2,634,1157,1174.2,1168.5,1197.2c65.1,120.7,1.9,302.6-130.2,371.6C5020.7,3197.2,4944.1,3191.4,4844.4,3126.3z"/></g></g>
</svg>